<?xml version="1.0" encoding="UTF-8" standalone="no"?>
<svg
   xmlns:osb="http://www.openswatchbook.org/uri/2009/osb"
   xmlns:dc="http://purl.org/dc/elements/1.1/"
   xmlns:cc="http://creativecommons.org/ns#"
   xmlns:rdf="http://www.w3.org/1999/02/22-rdf-syntax-ns#"
   xmlns:svg="http://www.w3.org/2000/svg"
   xmlns="http://www.w3.org/2000/svg"
   width="65.338226mm"
   height="14.428329mm"
   viewBox="0 0 65.338227 14.428327"
   version="1.1"
   id="svg8">
  <defs
     id="defs2">
    <linearGradient
       id="linearGradient2841"
       osb:paint="gradient">
      <stop
         style="stop-color:#000000;stop-opacity:1;"
         offset="0"
         id="stop2837" />
      <stop
         style="stop-color:#000000;stop-opacity:0;"
         offset="1"
         id="stop2839" />
    </linearGradient>
    <linearGradient
       id="linearGradient893"
       osb:paint="gradient">
      <stop
         style="stop-color:#000000;stop-opacity:1;"
         offset="0"
         id="stop889" />
      <stop
         style="stop-color:#000000;stop-opacity:0;"
         offset="1"
         id="stop891" />
    </linearGradient>
  </defs>
  <metadata
     id="metadata5">
    <rdf:RDF>
      <cc:Work
         rdf:about="">
        <dc:format>image/svg+xml</dc:format>
        <dc:type
           rdf:resource="http://purl.org/dc/dcmitype/StillImage" />
        <dc:title></dc:title>
      </cc:Work>
    </rdf:RDF>
  </metadata>
  <g
     id="layer1"
     transform="translate(-97.759758,-34.393041)">
    <g
       aria-label="pneuma"
       id="text12"
       style="font-style:normal;font-weight:normal;font-size:17.2557px;line-height:1.25;font-family:sans-serif;letter-spacing:0.862787px;fill:#000000;fill-opacity:1;stroke:none;stroke-width:0.431393"
       transform="translate(57.549994,10.892848)">
      <path
         d="m 61.236418,37.928521 q -0.362369,0 -0.517671,-0.138046 -0.155301,-0.12079 -0.155301,-0.465904 V 26.418969 q 0.517671,-0.327858 1.173388,-0.500415 0.655716,-0.189812 1.345944,-0.189812 0.862785,0 1.48399,0.310602 0.638461,0.293347 0.983575,1.087109 0.345114,0.776507 0.345114,2.191474 0,1.380456 -0.155301,2.346775 -0.155302,0.949063 -0.414137,1.553013 -0.258836,0.603949 -0.60395,0.931808 -0.327858,0.310602 -0.690227,0.431392 -0.345114,0.12079 -0.707484,0.12079 -0.465904,0 -0.828274,-0.138045 -0.345114,-0.138046 -0.534926,-0.345114 v 3.589185 q -0.172557,0.05177 -0.36237,0.08628 -0.189813,0.03451 -0.36237,0.03451 z m 1.656547,-4.486482 q 0.207069,0 0.448649,-0.12079 0.241579,-0.12079 0.465903,-0.517671 0.24158,-0.396881 0.379626,-1.190643 0.155301,-0.793762 0.155301,-2.139707 0,-1.035342 -0.155301,-1.570268 -0.138046,-0.552183 -0.431393,-0.741995 -0.293347,-0.207069 -0.741995,-0.207069 -0.586693,0 -1.052597,0.327858 v 5.590847 q 0.189812,0.310603 0.431392,0.448648 0.24158,0.12079 0.500415,0.12079 z"
         style="font-style:normal;font-variant:normal;font-weight:normal;font-stretch:normal;font-family:'Yanone Kaffeesatz';-inkscape-font-specification:'Yanone Kaffeesatz';stroke-width:0.431393"
         id="path3135" />
      <path
         d="m 68.014674,34.529148 v -8.213713 q 0.345114,-0.155301 0.811018,-0.276091 0.465904,-0.138045 0.966319,-0.224324 0.500416,-0.08628 0.966319,-0.08628 0.897297,0 1.432223,0.241579 0.534927,0.224324 0.759251,0.72474 0.224324,0.500415 0.224324,1.345944 v 6.212052 q 0,0.138046 -0.06902,0.189813 -0.06902,0.05177 -0.362369,0.06902 -0.293347,0.01726 -1.018086,0.01726 v -6.074006 q 0,-0.811018 -0.189813,-1.156132 -0.189813,-0.345114 -0.828274,-0.345114 -0.293347,0 -0.655716,0.06902 -0.36237,0.06902 -0.638461,0.24158 v 6.988558 q 0,0.138046 -0.06902,0.189813 -0.05177,0.05177 -0.345114,0.06902 -0.293347,0.01726 -0.983575,0.01726 z"
         style="font-style:normal;font-variant:normal;font-weight:normal;font-stretch:normal;font-family:'Yanone Kaffeesatz';-inkscape-font-specification:'Yanone Kaffeesatz';stroke-width:0.431393"
         id="path3137" />
      <path
         d="m 78.136492,34.701705 q -0.586694,0 -1.104365,-0.172557 -0.500415,-0.155301 -0.88004,-0.586694 -0.36237,-0.431392 -0.569438,-1.225154 -0.189813,-0.793762 -0.189813,-2.053429 0,-1.622035 0.258835,-2.60561 0.258836,-0.983575 0.690228,-1.48399 0.431393,-0.500415 0.983575,-0.672972 0.552183,-0.172557 1.121621,-0.172557 1.087109,0 1.639291,0.690227 0.552183,0.690228 0.552183,2.08794 0,0.569438 -0.05177,1.173388 -0.03451,0.603949 -0.155301,1.069853 -0.586694,0.12079 -1.311433,0.172557 -0.724739,0.05177 -1.380456,0.08628 -0.655717,0.01726 -1.087109,0.01726 -0.414137,0 -0.414137,0 l 0.01726,-1.138876 q 0,0 0.327858,0.01726 0.327858,0 0.793762,0 0.48316,-0.01726 0.96632,-0.05177 0.500415,-0.05177 0.845529,-0.155302 0.05177,-0.241579 0.06902,-0.517671 0.01726,-0.276091 0.01726,-0.517671 -0.01726,-0.931807 -0.224324,-1.311433 -0.189813,-0.396881 -0.759251,-0.396881 -0.293346,0 -0.569438,0.172557 -0.258835,0.155301 -0.465904,0.569438 -0.207068,0.396881 -0.327858,1.104365 -0.103534,0.707484 -0.103534,1.811848 0,0.811018 0.08628,1.345945 0.103535,0.534927 0.293347,0.828273 0.207069,0.293347 0.500416,0.431393 0.310602,0.12079 0.741995,0.12079 0.517671,0 1.018086,-0.138046 0.517671,-0.138045 0.931808,-0.396881 0.08628,0.207069 0.103534,0.48316 0.03451,0.258835 0.03451,0.465904 0,0.258835 -0.327858,0.483159 -0.327858,0.224324 -0.880041,0.345114 -0.534926,0.12079 -1.190643,0.12079 z"
         style="font-style:normal;font-variant:normal;font-weight:normal;font-stretch:normal;font-family:'Yanone Kaffeesatz';-inkscape-font-specification:'Yanone Kaffeesatz';stroke-width:0.431393"
         id="path3139" />
      <path
         d="m 85.286824,34.701705 q -1.035342,0 -1.587524,-0.310602 -0.552183,-0.310603 -0.776507,-0.949064 -0.207068,-0.638461 -0.207068,-1.60478 V 26.17739 q 0,-0.138046 0.05177,-0.189813 0.05177,-0.05177 0.345114,-0.06902 0.310603,-0.01725 1.035342,-0.01725 v 6.05675 q 0,0.552182 0.08628,0.897296 0.103534,0.327859 0.345113,0.48316 0.258836,0.138045 0.72474,0.138045 0.24158,0 0.569438,-0.06902 0.327858,-0.06902 0.603949,-0.24158 V 26.17739 q 0,-0.138046 0.05177,-0.189813 0.06902,-0.05177 0.345114,-0.06902 0.293347,-0.01725 1.000831,-0.01725 V 34.0805 q -0.500415,0.276091 -1.190643,0.448648 -0.690228,0.172557 -1.397712,0.172557 z"
         style="font-style:normal;font-variant:normal;font-weight:normal;font-stretch:normal;font-family:'Yanone Kaffeesatz';-inkscape-font-specification:'Yanone Kaffeesatz';stroke-width:0.431393"
         id="path3141" />
      <path
         d="M 90.302572,34.529148 V 26.29818 q 0.569438,-0.258836 1.225155,-0.414137 0.672972,-0.155301 1.380456,-0.155301 1.018086,0 1.48399,0.448648 0.465904,0.448648 0.586694,1.276921 0.138045,0.828274 0.138045,1.984406 v 4.81434 q 0,0.138046 -0.06902,0.189813 -0.06902,0.05177 -0.362369,0.06902 -0.293347,0.01726 -0.966319,0.01726 v -6.41912 q 0,-0.431392 -0.05177,-0.672972 -0.03451,-0.258836 -0.224325,-0.36237 -0.172557,-0.12079 -0.569438,-0.12079 -0.293347,0 -0.586693,0.06902 -0.276092,0.06902 -0.586694,0.224324 v 7.005814 q 0,0.138046 -0.06902,0.189813 -0.06902,0.05177 -0.36237,0.06902 -0.276091,0.01726 -0.966319,0.01726 z m 3.416629,0 v -7.523485 q 0.155301,-0.379625 0.603949,-0.655716 0.465904,-0.293347 1.069853,-0.448648 0.621206,-0.172557 1.190644,-0.172557 0.862785,0 1.276921,0.293346 0.414137,0.276092 0.534927,0.828274 0.12079,0.534927 0.12079,1.311433 v 6.091262 q 0,0.138046 -0.06902,0.189813 -0.06902,0.05177 -0.362369,0.06902 -0.293347,0.01726 -0.96632,0.01726 v -6.384609 q 0,-0.621205 -0.172557,-0.897296 -0.155301,-0.276091 -0.672972,-0.276091 -0.276091,0 -0.569438,0.06902 -0.293347,0.06902 -0.586694,0.258835 v 6.954047 q 0,0.138046 -0.05177,0.189813 -0.05177,0.05177 -0.345114,0.06902 -0.293347,0.01726 -1.00083,0.01726 z"
         style="font-style:normal;font-variant:normal;font-weight:normal;font-stretch:normal;font-family:'Yanone Kaffeesatz';-inkscape-font-specification:'Yanone Kaffeesatz';stroke-width:0.431393"
         id="path3143" />
      <path
         d="m 103.04591,34.701705 q -0.48316,0 -0.93181,-0.08628 -0.43139,-0.06902 -0.7765,-0.327859 -0.34512,-0.276091 -0.55219,-0.793762 -0.20706,-0.517671 -0.20706,-1.414967 0,-0.897297 0.18981,-1.449479 0.18981,-0.569438 0.51767,-0.862785 0.32786,-0.310602 0.74199,-0.414137 0.41414,-0.103534 0.84553,-0.103534 0.27609,0 0.63846,0.05177 0.37963,0.05177 0.63847,0.172557 0,0 0,-0.24158 0,-0.241579 0,-0.552182 0,-0.327858 0,-0.569438 0,-0.414137 -0.13805,-0.621205 -0.12079,-0.224324 -0.36237,-0.310603 -0.22432,-0.103534 -0.56944,-0.103534 -0.67297,0 -1.29418,0.12079 -0.6212,0.12079 -1.00083,0.276091 -0.12079,-0.207068 -0.1553,-0.414137 -0.0345,-0.224324 -0.0345,-0.396881 0,-0.12079 0.0345,-0.258835 0.0518,-0.138046 0.1553,-0.207069 0.22433,-0.138045 0.93181,-0.293346 0.70749,-0.172557 1.69106,-0.172557 1.12162,0 1.62204,0.465903 0.51767,0.465904 0.51767,1.639292 v 0.914552 q 0,0.983575 -0.0173,1.984405 0,0.983575 -0.0173,1.863616 -0.0173,0.862785 -0.069,1.518501 -0.34511,0.207069 -0.94906,0.396881 -0.60395,0.189813 -1.44948,0.189813 z m 0.13805,-1.173387 q 0.27609,0 0.53492,-0.08628 0.25884,-0.08628 0.36237,-0.207068 0.0345,-0.276092 0.0345,-0.759251 0.0173,-0.48316 0.0173,-1.018086 0.0173,-0.534927 0.0173,-1.000831 -0.17256,-0.08628 -0.41414,-0.12079 -0.22433,-0.03451 -0.39688,-0.03451 -0.27609,0 -0.51767,0.06902 -0.22433,0.05177 -0.39688,0.241579 -0.17256,0.172557 -0.2761,0.517671 -0.10353,0.345114 -0.10353,0.914552 0,0.465904 0.069,0.759251 0.0863,0.293347 0.24158,0.465904 0.1553,0.155301 0.36237,0.207068 0.20707,0.05177 0.46591,0.05177 z"
         style="font-style:normal;font-variant:normal;font-weight:normal;font-stretch:normal;font-family:'Yanone Kaffeesatz';-inkscape-font-specification:'Yanone Kaffeesatz';stroke-width:0.431393"
         id="path3145" />
    </g>
    <path
       style="fill:none;stroke:#000000;stroke-width:0.965;stroke-linecap:butt;stroke-linejoin:miter;stroke-miterlimit:4;stroke-dasharray:none;stroke-opacity:1"
       d="m 113.93221,39.579926 c -2.03251,0 -4.06528,0 -5.78902,0 -1.72373,0 -3.13838,0 -3.84585,-0.809105 -0.70747,-0.809105 -0.70747,-2.427514 -0.0888,-3.236866 0.61866,-0.809352 1.85567,-0.809352 2.47406,-0.337958 0.61838,0.471395 0.61838,1.413886 0.61838,2.356128"
       id="path3318" />
    <path
       style="fill:none;stroke:#000000;stroke-width:0.965;stroke-linecap:butt;stroke-linejoin:miter;stroke-miterlimit:4;stroke-dasharray:none;stroke-opacity:1"
       d="m 114.75743,41.747961 c -3.73301,0 -7.46629,0 -10.29925,0 -2.83296,0 -4.765537,0 -6.698422,0"
       id="path3322" />
    <path
       style="fill:none;stroke:#000000;stroke-width:0.928792;stroke-linecap:butt;stroke-linejoin:miter;stroke-miterlimit:4;stroke-dasharray:none;stroke-opacity:1"
       d="m 114.07221,43.919412 c -3.47869,0 -6.95765,0 -9.40522,0 -2.44757,0 -3.86371,0 -4.57193,0.748737 -0.708214,0.748738 -0.708214,2.246397 -0.0889,2.995362 0.61932,0.748966 1.85763,0.748966 2.47667,0.312742 0.61903,-0.436223 0.61903,-1.308394 0.61903,-2.180335"
       id="path3326" />
  </g>
</svg>
